<svg width="280" height="188" xmlns="http://www.w3.org/2000/svg">

 <g>
  <title>background</title>
  <rect fill="none" id="canvas_background" height="190" width="282" y="-1" x="-1"/>
 </g>
 <g>
  <title>Layer 1</title>
  <g id="svg_1" text-anchor="none" font-size="none" font-weight="none" font-family="none" stroke-dashoffset="0" stroke-miterlimit="10" fill-rule="nonzero" fill="#1b365d">
   <g stroke="null" id="svg_2">
    <path stroke="null" id="svg_3" d="m18.813247,182.715827c-7.102217,0 -12.859719,-5.757487 -12.859719,-12.859719l0,-151.630092c0,-7.102217 5.757487,-12.859719 12.859719,-12.859719l242.79743,0c7.102217,0 12.859719,5.757487 12.859719,12.859719l0,151.630092c0,7.102217 -5.757487,12.859719 -12.859719,12.859719l-242.79743,0zm235.938907,-6.858508c7.102217,0 12.859719,-5.757487 12.859719,-12.859719l0,-137.913062c0,-7.102217 -5.757487,-12.859719 -12.859719,-12.859719l-21.432851,0l0,117.1838l-18.636545,0l0,-28.783652l-47.420197,0l0,75.232337l87.489593,0.000014zm-229.080399,-163.6325c-7.102217,0 -12.859719,5.757487 -12.859719,12.859719l0,137.913062c0,7.102217 5.757487,12.859719 12.859719,12.859719l122.954275,0l0,-115.469176l18.636531,0l0,25.11663l47.420197,0l0,-73.27994l-189.011003,-0.000014zm105.975426,82.623336c0,4.420527 -0.485583,8.347099 -1.456765,11.7797c-0.971181,3.432602 -2.335853,6.42148 -4.094014,8.966636c-1.758161,2.545156 -3.867967,4.705179 -6.329387,6.480085c-2.461435,1.774906 -5.199149,3.198182 -8.213144,4.269829c-3.013995,1.071647 -6.26241,1.850255 -9.745258,2.335853c-3.482834,0.485583 -7.116381,0.728375 -10.900612,0.728375l-43.803394,0l0,-69.02049l43.702929,0c3.784245,0 7.417778,0.242792 10.900612,0.72839c3.482834,0.485583 6.739635,1.264206 9.770375,2.335853c3.030739,1.071647 5.785198,2.486551 8.263377,4.244712c2.478179,1.758161 4.596342,3.918199 6.354503,6.480085c1.758161,2.5619 3.122833,5.550779 4.094014,8.966636c0.971181,3.415857 1.456765,7.317312 1.456765,11.704351m-18.787229,-0.000014c0,-3.315392 -0.426979,-6.195433 -1.28095,-8.640123c-0.853971,-2.44469 -2.227001,-4.462388 -4.11913,-6.053107c-1.892115,-1.590719 -4.361922,-2.779575 -7.409406,-3.566556c-3.047484,-0.786994 -6.764752,-1.180485 -11.15179,-1.180485l-23.157538,0l0,38.981005l23.157538,0c4.387039,0 8.104292,-0.39349 11.15179,-1.180485c3.047484,-0.786994 5.51729,-1.992581 7.409406,-3.616788c1.892115,-1.624207 3.265159,-3.658649 4.11913,-6.103339c0.853971,-2.44469 1.28095,-5.324731 1.28095,-8.640123z"/>
    <path stroke="null" id="svg_4" d="m-76.568912,256.738564c0,2.705144 -0.297153,5.108016 -0.891474,7.208604c-0.594306,2.100587 -1.429426,3.929639 -2.505331,5.487156c-1.075919,1.557517 -2.367004,2.879339 -3.873285,3.965508c-1.506281,1.086155 -3.181624,1.957128 -5.026044,2.612936c-1.84442,0.655793 -3.832299,1.132273 -5.963622,1.429426c-2.131323,0.297153 -4.354883,0.44573 -6.670651,0.44573l-26.805578,0l0,-42.237218l26.744092,0c2.315768,0 4.539328,0.148577 6.670651,0.44573c2.131323,0.297153 4.124334,0.773633 5.97899,1.429426c1.85467,0.655793 3.540264,1.521649 5.05678,2.597553c1.516517,1.075919 2.812734,2.39774 3.888653,3.965508c1.075919,1.567753 1.911024,3.396805 2.505331,5.487156c0.594306,2.090337 0.891474,4.477842 0.891474,7.1625m-11.496868,-0.000014c0,-2.028865 -0.261299,-3.791313 -0.783884,-5.287343c-0.522584,-1.496031 -1.362822,-2.730762 -2.520713,-3.704208c-1.157891,-0.973446 -2.66929,-1.700961 -4.534196,-2.18256c-1.86492,-0.481598 -4.139702,-0.722397 -6.82436,-0.722397l-14.17129,0l0,23.854503l14.17129,0c2.684658,0 4.95944,-0.240799 6.82436,-0.722397c1.86492,-0.481598 3.376319,-1.219363 4.534196,-2.21331c1.157891,-0.993932 1.998129,-2.238928 2.520713,-3.734944c0.522584,-1.496031 0.783884,-3.258478 0.783884,-5.287343zm21.887125,21.149345l0,-42.237218l42.759817,0l0,9.00692l-31.047739,0l0,6.978055l29.44925,0l0,9.00692l-29.44925,0l0,8.238404l31.478101,0l0,9.00692l-43.190179,0zm88.132541,-7.992487l-23.5471,0l-3.965508,7.992487l-12.726496,0l22.102306,-42.237218l12.726496,0l22.102306,42.237218l-12.726496,0l-3.965508,-7.992487m-19.458634,-8.238404l15.431654,0l-7.685084,-15.554613l-7.74657,15.554613zm43.06722,16.230891l0,-42.237218l11.40466,0l0,32.984382l30.832558,0l0,9.252837l-42.237218,0zm90.284364,-30.34071c-0.799252,-0.389376 -1.85467,-0.829988 -3.166256,-1.321836c-1.311586,-0.491848 -2.797366,-0.958078 -4.457356,-1.39869c-1.659975,-0.440612 -3.463409,-0.809502 -5.410302,-1.106655c-1.946893,-0.297153 -3.945007,-0.44573 -5.994373,-0.44573c-1.639489,0 -3.038165,0.051236 -4.196057,0.153709c-1.157891,0.102473 -2.131323,0.235681 -2.920339,0.399626c-0.789001,0.163945 -1.414058,0.353507 -1.875156,0.568703c-0.461098,0.215181 -0.81462,0.435494 -1.060537,0.660911c-0.245917,0.225431 -0.404744,0.450862 -0.47648,0.676293c-0.071722,0.225431 -0.10759,0.430362 -0.10759,0.614807c0,0.614807 0.307403,1.152759 0.92221,1.613871c0.614807,0.461112 1.455044,0.870974 2.520713,1.229613c1.065669,0.35864 2.305532,0.696779 3.719576,1.014433c1.414058,0.317653 2.915207,0.645543 4.50346,0.983696c1.588253,0.338139 3.227742,0.707029 4.918454,1.106655c1.690726,0.399626 3.330201,0.865856 4.918454,1.39869c1.588253,0.532834 3.089402,1.152759 4.50346,1.859788c1.414058,0.707029 2.653922,1.531899 3.719576,2.474595c1.065669,0.94271 1.905907,2.028865 2.520713,3.258478c0.614807,1.229613 0.92221,2.633422 0.92221,4.211425c0,2.028865 -0.35864,3.770813 -1.075919,5.225857c-0.717279,1.455044 -1.675343,2.684658 -2.874221,3.68884c-1.198877,1.004182 -2.587318,1.808552 -4.16532,2.413123c-1.578003,0.604557 -3.23286,1.070787 -4.964558,1.39869c-1.731712,0.327904 -3.483909,0.543085 -5.256593,0.645543c-1.772698,0.102473 -3.458291,0.153709 -5.05678,0.153709c-4.180689,0 -8.048841,-0.343272 -11.604473,-1.029801c-3.555632,-0.686529 -6.69627,-1.542135 -9.421914,-2.566817l0,-10.082824c2.807616,1.557517 6.009741,2.77688 9.606358,3.658104c3.596618,0.881224 7.444285,1.321836 11.543001,1.321836c2.418241,0 4.390752,-0.128091 5.917518,-0.384258c1.526767,-0.256167 2.720526,-0.584071 3.58125,-0.983696c0.860724,-0.399626 1.444794,-0.83512 1.752198,-1.306468c0.307403,-0.471348 0.461112,-0.92221 0.461112,-1.352572c0,-0.676293 -0.307403,-1.265482 -0.92221,-1.767566c-0.614807,-0.502098 -1.455044,-0.94271 -2.520713,-1.321836c-1.065669,-0.379126 -2.305532,-0.727515 -3.719576,-1.045169c-1.414058,-0.317653 -2.915207,-0.635307 -4.50346,-0.952946c-1.588253,-0.317653 -3.22261,-0.660911 -4.903086,-1.029801c-1.680476,-0.36889 -3.314833,-0.804369 -4.903086,-1.306468c-1.588253,-0.502098 -3.089402,-1.086155 -4.50346,-1.752198c-1.414058,-0.666043 -2.653922,-1.455044 -3.719576,-2.367004c-1.065669,-0.91196 -1.905907,-1.967379 -2.520713,-3.166256c-0.614807,-1.198877 -0.92221,-2.587318 -0.92221,-4.16532c0,-1.86492 0.327904,-3.473659 0.983696,-4.826231c0.655793,-1.352572 1.542135,-2.505331 2.65904,-3.458291c1.116905,-0.952946 2.407991,-1.72658 3.873285,-2.3209c1.465295,-0.594306 3.007429,-1.055419 4.626418,-1.383322c1.618989,-0.327904 3.258478,-0.55332 4.918454,-0.676293c1.659975,-0.122958 3.237978,-0.184445 4.734009,-0.184445c1.639489,0 3.325083,0.081972 5.05678,0.245917c1.731712,0.163945 3.437791,0.394508 5.118267,0.691661c1.680476,0.297153 3.304582,0.640425 4.87235,1.029801c1.567753,0.389376 3.017679,0.799252 4.349751,1.229613l0,9.775407zm78.38787,30.34071l0,-17.614214l-29.018874,0l0,17.614214l-11.40466,0l0,-42.237218l11.40466,0l0,15.370168l29.018874,0l0,-15.370168l11.40466,0l0,42.237218l-11.40466,0zm74.483835,-14.232777c0,2.110837 -0.522584,4.098716 -1.567753,5.963622c-1.045169,1.86492 -2.612936,3.494145 -4.703273,4.887718c-2.090337,1.393558 -4.698155,2.495095 -7.82341,3.304582c-3.12527,0.809502 -6.778242,1.214245 -10.95893,1.214245c-4.180689,0 -7.843911,-0.404744 -10.989666,-1.214245c-3.145756,-0.809502 -5.763809,-1.911024 -7.854161,-3.304582c-2.090337,-1.393558 -3.658104,-3.022797 -4.703273,-4.887718c-1.045169,-1.86492 -1.567753,-3.852785 -1.567753,-5.963622l0,-28.004441l11.373924,0l0,23.91599c0,1.414058 0.179313,2.751262 0.537952,4.011612c0.35864,1.260349 1.034918,2.361887 2.028865,3.304582c0.993932,0.94271 2.387505,1.690726 4.180689,2.244046c1.793184,0.55332 4.124334,0.829988 6.993423,0.829988c2.848603,0 5.164371,-0.276667 6.947319,-0.829988c1.782934,-0.55332 3.171374,-1.301336 4.16532,-2.244046c0.993932,-0.94271 1.665107,-2.044233 2.013497,-3.304582c0.34839,-1.260349 0.522584,-2.597553 0.522584,-4.011612l0,-23.91599l11.40466,0l0,28.004441l-0.000014,0zm52.811905,14.232777l-28.49629,-29.018874l0,29.018874l-11.40466,0l0,-42.237218l12.388357,0l28.52704,29.141847l0,-29.141847l11.343188,0l0,42.237218l-12.357635,0zm49.246023,-33.045854l0,33.045868l-11.40466,0l0,-33.045868l-17.921617,0l0,-9.191365l47.278645,0l0,9.191365l-17.952367,0z"/>
    <path stroke="null" id="svg_5" d="m-109.676109,315.201656c0,0.729465 -0.095749,1.363195 -0.287233,1.901176c-0.191484,0.537981 -0.458202,1.000742 -0.80014,1.388268c-0.341938,0.387526 -0.752259,0.702112 -1.230975,0.943742c-0.478717,0.241631 -1.005301,0.433129 -1.579752,0.574451c-0.574451,0.141337 -1.189946,0.239351 -1.84647,0.294071c-0.656524,0.054706 -1.335842,0.082058 -2.037954,0.082058l-10.846279,0l0,-18.792921l10.60009,0c0.537981,0 1.075962,0.022794 1.613943,0.068382c0.537981,0.045588 1.055447,0.12994 1.552399,0.253028c0.496952,0.123102 0.957433,0.294071 1.38143,0.512908c0.423997,0.218837 0.793302,0.506069 1.107873,0.861684c0.314586,0.355615 0.560775,0.784185 0.738582,1.285681c0.177807,0.501511 0.266718,1.094197 0.266718,1.778074c0,0.610936 -0.07522,1.139799 -0.225675,1.58659c-0.150455,0.446805 -0.378409,0.829773 -0.683877,1.148917c-0.305468,0.319144 -0.695274,0.58129 -1.169432,0.786464c-0.474158,0.20516 -1.030374,0.367012 -1.668663,0.485555c0.911831,0.063823 1.691457,0.218837 2.338863,0.46504c0.647406,0.246189 1.17627,0.574451 1.58659,0.984786c0.41032,0.41032 0.71123,0.900434 0.902713,1.470341c0.191484,0.569893 0.287233,1.210461 0.287233,1.92169m-2.968006,-8.822002c0,-0.264439 -0.018235,-0.528863 -0.054706,-0.793302c-0.03647,-0.264439 -0.118543,-0.517466 -0.246189,-0.759097c-0.127661,-0.241631 -0.312306,-0.46732 -0.553937,-0.677039c-0.241631,-0.209719 -0.572172,-0.389806 -0.991624,-0.54026c-0.419438,-0.150455 -0.936904,-0.268998 -1.552399,-0.355615c-0.615495,-0.086631 -1.356357,-0.12994 -2.2226,-0.12994l-8.329609,0l0,6.565211l8.329609,0c1.230975,0 2.215761,-0.088911 2.954344,-0.266718c0.738582,-0.177807 1.30621,-0.417159 1.702854,-0.718068c0.396644,-0.300909 0.656524,-0.651965 0.779626,-1.053168c0.123102,-0.401203 0.184646,-0.825214 0.184646,-1.272004m1.176255,8.794663c0,-0.71123 -0.123102,-1.317607 -0.369291,-1.819117c-0.246189,-0.501511 -0.624612,-0.911831 -1.135241,-1.230975c-0.510628,-0.319144 -1.167152,-0.553937 -1.969558,-0.704391c-0.80242,-0.150455 -1.75528,-0.225675 -2.858609,-0.225675l-8.794649,0l0,7.645732l9.027176,0c1.139799,0 2.099498,-0.066103 2.879124,-0.198322c0.779626,-0.132219 1.408783,-0.346497 1.887499,-0.642848c0.478717,-0.29635 0.820655,-0.677039 1.025815,-1.142079c0.20516,-0.46504 0.307747,-1.025815 0.307747,-1.682339l-0.000014,0.000014zm10.814984,5.211134l0,-18.792921l15.66077,0l0,1.600266l-13.800623,0l0,6.469477l13.10307,0l0,1.58659l-13.10307,0l0,7.536321l14.005783,0l0,1.600266l-15.86593,0zm40.536243,-16.016384c-0.355615,-0.173249 -0.765935,-0.357894 -1.230975,-0.553937c-0.46504,-0.196043 -0.996183,-0.371571 -1.593428,-0.526584c-0.597245,-0.155013 -1.269725,-0.284953 -2.017439,-0.389806c-0.7477,-0.104867 -1.577473,-0.157293 -2.489303,-0.157293c-1.103315,0 -2.085821,0.063823 -2.947505,0.191484c-0.861684,0.127661 -1.591149,0.325983 -2.188409,0.594966c-0.597245,0.268998 -1.053168,0.608657 -1.367754,1.018977c-0.314586,0.41032 -0.471878,0.898155 -0.471878,1.463503c0,0.474158 0.148175,0.889037 0.444526,1.244652c0.29635,0.355615 0.697553,0.6702 1.203623,0.943742c0.506069,0.273556 1.098756,0.522025 1.778074,0.745421c0.679318,0.223395 1.399665,0.433129 2.161056,0.629171c0.761376,0.196043 1.545561,0.394365 2.35254,0.594966c0.806979,0.200601 1.591149,0.417159 2.35254,0.649686c0.761376,0.232513 1.481738,0.492393 2.161056,0.779626c0.679318,0.287233 1.272004,0.622333 1.778074,1.005301c0.506069,0.382968 0.907272,0.820655 1.203623,1.313048c0.29635,0.492393 0.444526,1.062286 0.444526,1.709692c0,0.702112 -0.132219,1.315327 -0.396644,1.839632c-0.264439,0.524305 -0.622333,0.975668 -1.073683,1.354077c-0.451364,0.378409 -0.980227,0.692994 -1.58659,0.943742c-0.606377,0.250748 -1.253769,0.449084 -1.942205,0.594966c-0.688436,0.145896 -1.399665,0.248469 -2.133689,0.307747c-0.734024,0.059264 -1.45665,0.088911 -2.167894,0.088911c-1.632178,0 -3.111636,-0.118543 -4.438361,-0.355615c-1.326724,-0.237072 -2.591891,-0.560775 -3.795513,-0.97111l0,-2.092659c1.240093,0.738582 2.550862,1.244652 3.932291,1.518208c1.38143,0.273556 2.833521,0.41032 4.356288,0.41032c1.075962,0 2.069866,-0.063823 2.981696,-0.191484c0.911831,-0.127661 1.700574,-0.330541 2.366216,-0.608657c0.665642,-0.278115 1.183108,-0.640568 1.552399,-1.087359c0.369291,-0.446805 0.553937,-0.993904 0.553937,-1.64131c0,-0.519746 -0.148175,-0.975668 -0.444526,-1.367754c-0.29635,-0.392085 -0.697553,-0.736303 -1.203623,-1.032653c-0.506069,-0.29635 -1.098756,-0.558496 -1.778074,-0.786464c-0.679318,-0.227954 -1.397386,-0.439967 -2.154218,-0.636009c-0.756818,-0.196043 -1.538723,-0.387526 -2.345701,-0.574451c-0.806979,-0.186925 -1.58887,-0.389806 -2.345701,-0.608657c-0.756818,-0.218837 -1.4749,-0.46504 -2.154218,-0.738582c-0.679318,-0.273556 -1.272004,-0.594966 -1.778074,-0.964271c-0.506069,-0.369291 -0.907272,-0.795582 -1.203623,-1.278843c-0.29635,-0.483275 -0.444526,-1.04405 -0.444526,-1.682339c0,-0.629171 0.118543,-1.187667 0.355615,-1.675501c0.237072,-0.487834 0.563054,-0.909552 0.977948,-1.265166c0.414879,-0.355615 0.900434,-0.654245 1.45665,-0.895875c0.556216,-0.241631 1.151196,-0.433129 1.784912,-0.574451c0.63373,-0.141337 1.292533,-0.24391 1.97641,-0.307747c0.683877,-0.063823 1.358636,-0.095749 2.024278,-0.095749c0.729465,0 1.42018,0.031912 2.072145,0.095749c0.651965,0.063823 1.281122,0.148175 1.887499,0.253028c0.606377,0.104867 1.199064,0.225675 1.778074,0.362453c0.57901,0.136778 1.164873,0.282674 1.757559,0.437687l0,1.969572zm18.693244,-1.217299l0,17.233683l-1.696016,0l0,-17.233683l-8.54846,0l0,-1.559237l18.792921,0l0,1.559237l-8.548445,0zm51.706842,7.823539c0,1.203623 -0.125381,2.272746 -0.376129,3.207386c-0.250748,0.934625 -0.604098,1.748442 -1.060006,2.441436c-0.455923,0.692994 -1.009859,1.281122 -1.661825,1.764397c-0.651965,0.483275 -1.376871,0.870802 -2.174732,1.162593c-0.797861,0.291792 -1.664104,0.50379 -2.598729,0.636009c-0.934625,0.132219 -1.917132,0.198322 -2.947505,0.198322l-9.697362,0l0,-18.792921l9.67001,0c1.541002,0 2.972579,0.150455 4.294744,0.451364c1.322166,0.300909 2.468789,0.813817 3.439898,1.538723c0.97111,0.724906 1.732486,1.689177 2.284143,2.8928c0.551657,1.203623 0.827493,2.703596 0.827493,4.499905m-1.764397,-0.000014c0,-1.021256 -0.100308,-1.92397 -0.300909,-2.708154c-0.200601,-0.784185 -0.487834,-1.465782 -0.861684,-2.044792c-0.37385,-0.57901 -0.829773,-1.064565 -1.367754,-1.45665c-0.537981,-0.392085 -1.144358,-0.70895 -1.819117,-0.950595c-0.674759,-0.241631 -1.408783,-0.4126 -2.202085,-0.512908c-0.793302,-0.100308 -1.636751,-0.150455 -2.530347,-0.150455l-7.960318,0l0,15.66077l7.960318,0c1.340401,0 2.566817,-0.120822 3.67925,-0.362453c1.112432,-0.241631 2.067586,-0.661083 2.865447,-1.258328c0.797861,-0.597245 1.42018,-1.399665 1.866985,-2.407245c0.446805,-1.00758 0.6702,-2.277305 0.6702,-3.80919l0.000014,0zm10.951748,9.410144l0,-18.792921l15.66077,0l0,1.600266l-13.800623,0l0,6.469477l13.10307,0l0,1.58659l-13.10307,0l0,7.536321l14.005783,0l0,1.600266l-15.86593,0zm42.560534,0l-2.585052,-4.951268l-12.761131,0l-2.585052,4.951268l-1.873823,0l9.834141,-18.792921l2.010601,0l9.834141,18.792921l-1.873823,0m-8.958794,-17.137949l-5.553073,10.613766l11.092483,0l-5.53941,-10.613766zm18.734273,17.137949l0,-18.792921l1.709692,0l0,17.192654l13.732241,0l0,1.600266l-15.441933,0zm39.031725,-16.016384c-0.355615,-0.173249 -0.765935,-0.357894 -1.230975,-0.553937c-0.46504,-0.196043 -0.996183,-0.371571 -1.593428,-0.526584c-0.597245,-0.155013 -1.269725,-0.284953 -2.017439,-0.389806c-0.7477,-0.104867 -1.577473,-0.157293 -2.489303,-0.157293c-1.103315,0 -2.085821,0.063823 -2.947505,0.191484c-0.861684,0.127661 -1.591149,0.325983 -2.188409,0.594966c-0.597245,0.268998 -1.053168,0.608657 -1.367754,1.018977c-0.314586,0.41032 -0.471878,0.898155 -0.471878,1.463503c0,0.474158 0.148175,0.889037 0.444526,1.244652c0.29635,0.355615 0.697553,0.6702 1.203623,0.943742c0.506069,0.273556 1.098756,0.522025 1.778074,0.745421c0.679318,0.223395 1.399665,0.433129 2.161056,0.629171c0.761376,0.196043 1.545561,0.394365 2.35254,0.594966c0.806979,0.200601 1.591149,0.417159 2.35254,0.649686c0.761376,0.232513 1.481738,0.492393 2.161056,0.779626c0.679318,0.287233 1.272004,0.622333 1.778074,1.005301c0.506069,0.382968 0.907272,0.820655 1.203623,1.313048c0.29635,0.492393 0.444526,1.062286 0.444526,1.709692c0,0.702112 -0.132219,1.315327 -0.396644,1.839632c-0.264439,0.524305 -0.622333,0.975668 -1.073683,1.354077c-0.451364,0.378409 -0.980227,0.692994 -1.58659,0.943742c-0.606377,0.250748 -1.253769,0.449084 -1.942205,0.594966c-0.688436,0.145896 -1.399665,0.248469 -2.133689,0.307747c-0.734024,0.059264 -1.45665,0.088911 -2.167894,0.088911c-1.632178,0 -3.111636,-0.118543 -4.438361,-0.355615c-1.326724,-0.237072 -2.591891,-0.560775 -3.795513,-0.97111l0,-2.092659c1.240093,0.738582 2.550862,1.244652 3.932291,1.518208c1.38143,0.273556 2.833521,0.41032 4.356288,0.41032c1.075962,0 2.069866,-0.063823 2.981696,-0.191484c0.911831,-0.127661 1.700574,-0.330541 2.366216,-0.608657c0.665642,-0.278115 1.183108,-0.640568 1.552399,-1.087359c0.369291,-0.446805 0.553937,-0.993904 0.553937,-1.64131c0,-0.519746 -0.148175,-0.975668 -0.444526,-1.367754c-0.29635,-0.392085 -0.697553,-0.736303 -1.203623,-1.032653c-0.506069,-0.29635 -1.098756,-0.558496 -1.778074,-0.786464c-0.679318,-0.227954 -1.397386,-0.439967 -2.154218,-0.636009c-0.756818,-0.196043 -1.538723,-0.387526 -2.345701,-0.574451c-0.806979,-0.186925 -1.58887,-0.389806 -2.345701,-0.608657c-0.756818,-0.218837 -1.4749,-0.46504 -2.154218,-0.738582c-0.679318,-0.273556 -1.272004,-0.594966 -1.778074,-0.964271c-0.506069,-0.369291 -0.907272,-0.795582 -1.203623,-1.278843c-0.29635,-0.483275 -0.444526,-1.04405 -0.444526,-1.682339c0,-0.629171 0.118543,-1.187667 0.355615,-1.675501c0.237072,-0.487834 0.563054,-0.909552 0.977948,-1.265166c0.414879,-0.355615 0.900434,-0.654245 1.45665,-0.895875c0.556216,-0.241631 1.151196,-0.433129 1.784912,-0.574451c0.63373,-0.141337 1.292533,-0.24391 1.97641,-0.307747c0.683877,-0.063823 1.358636,-0.095749 2.024278,-0.095749c0.729465,0 1.42018,0.031912 2.072145,0.095749c0.651965,0.063823 1.281122,0.148175 1.887499,0.253028c0.606377,0.104867 1.199064,0.225675 1.778074,0.362453c0.57901,0.136778 1.164873,0.282674 1.757559,0.437687l0,1.969572zm34.199602,8.056067l0,7.960318l-1.709692,0l0,-7.960318l-8.822002,-10.832603l2.037954,0l7.645732,9.410144l7.618379,-9.410144l2.05163,0l-8.822002,10.832603zm38.635081,-1.422473c0,1.686898 -0.305468,3.143548 -0.91639,4.369965c-0.610936,1.226417 -1.449812,2.238555 -2.516671,3.036416c-1.066844,0.797861 -2.325187,1.388268 -3.774999,1.771236c-1.449812,0.382968 -3.013622,0.574451 -4.691388,0.574451c-1.686898,0 -3.259812,-0.191484 -4.718741,-0.574451c-1.458929,-0.382968 -2.72639,-0.973389 -3.802351,-1.771236c-1.075962,-0.797861 -1.919411,-1.81 -2.530347,-3.036416c-0.610936,-1.226417 -0.91639,-2.683081 -0.91639,-4.369965c0,-1.121564 0.141337,-2.140527 0.423997,-3.056931c0.282674,-0.91639 0.679318,-1.737045 1.189946,-2.461951c0.510628,-0.724906 1.128402,-1.351798 1.853308,-1.880661c0.724906,-0.528863 1.531885,-0.96883 2.420921,-1.319886c0.889037,-0.351056 1.844191,-0.610936 2.865447,-0.779626c1.021256,-0.16869 2.092659,-0.253028 3.214224,-0.253028c1.67778,0 3.241576,0.191484 4.691388,0.574451c1.449812,0.382968 2.708154,0.973389 3.774999,1.771236c1.066844,0.797861 1.905735,1.81 2.516671,3.036416c0.610936,1.226417 0.91639,2.683081 0.91639,4.369965m-1.764412,0.000014c0,-1.331283 -0.216557,-2.507553 -0.649686,-3.528809c-0.433129,-1.021256 -1.073683,-1.880661 -1.92169,-2.578214c-0.848008,-0.697553 -1.903455,-1.226417 -3.166342,-1.58659c-1.262887,-0.360174 -2.728669,-0.54026 -4.397332,-0.54026c-1.668663,0 -3.138989,0.182366 -4.411008,0.547099c-1.272004,0.364732 -2.336584,0.895875 -3.193709,1.593428c-0.857125,0.697553 -1.504532,1.559237 -1.942205,2.585052c-0.437687,1.025815 -0.656524,2.195247 -0.656524,3.50828c0,1.331283 0.218837,2.507553 0.656524,3.528809c0.437687,1.021256 1.08508,1.880661 1.942205,2.578214c0.857125,0.697553 1.92169,1.226417 3.193709,1.58659c1.272004,0.360174 2.742345,0.54026 4.411008,0.54026c1.668663,0 3.13443,-0.180087 4.397332,-0.54026c1.262887,-0.360174 2.318334,-0.889037 3.166342,-1.58659c0.848008,-0.697553 1.488576,-1.556958 1.92169,-2.578214c0.433129,-1.021256 0.649686,-2.197526 0.649686,-3.528809l0,0.000014zm29.785712,3.474089c0,0.939184 -0.198322,1.79403 -0.594966,2.564538c-0.396644,0.770494 -0.989345,1.431577 -1.778074,1.983248c-0.788743,0.551657 -1.775794,0.977948 -2.961182,1.278843c-1.185387,0.300909 -2.566817,0.451364 -4.14429,0.451364c-1.577473,0 -2.958902,-0.150455 -4.14429,-0.451364c-1.185387,-0.300909 -2.174732,-0.727185 -2.96802,-1.278843c-0.793302,-0.551657 -1.388268,-1.21274 -1.784912,-1.983248c-0.396644,-0.770494 -0.594966,-1.62534 -0.594966,-2.564538l0,-12.884233l1.709692,0l0,13.021012c0,0.629171 0.16641,1.224137 0.499231,1.784912c0.332821,0.560775 0.827493,1.050889 1.484017,1.470341c0.656524,0.419438 1.468061,0.752259 2.434598,0.998462c0.966551,0.246189 2.088101,0.369291 3.364678,0.369291c1.267446,0 2.384451,-0.123102 3.350988,-0.369291c0.966551,-0.246189 1.778074,-0.57901 2.434598,-0.998462c0.656524,-0.419438 1.151196,-0.909552 1.484017,-1.470341c0.332821,-0.560775 0.499231,-1.155755 0.499231,-1.784912l0,-13.021012l1.709692,0l0,12.884233l-0.000043,0zm44.375681,4.417846c-0.656524,0.273556 -1.30621,0.524305 -1.949043,0.752259c-0.642848,0.227954 -1.310769,0.423997 -2.003763,0.588128c-0.692994,0.164131 -1.422459,0.291792 -2.188409,0.382968c-0.765935,0.09119 -1.600266,0.136778 -2.502994,0.136778c-1.112432,0 -2.18157,-0.09119 -3.207386,-0.273556c-1.025815,-0.182366 -1.980969,-0.455923 -2.865447,-0.820655c-0.884478,-0.364732 -1.686898,-0.818376 -2.407245,-1.360915c-0.720347,-0.54254 -1.338121,-1.17399 -1.853308,-1.894338c-0.515187,-0.720347 -0.911831,-1.531885 -1.189946,-2.434598c-0.278115,-0.902713 -0.417159,-1.892058 -0.417159,-2.96802c0,-1.075962 0.139058,-2.065307 0.417159,-2.96802c0.278115,-0.902713 0.674759,-1.714251 1.189946,-2.434598c0.515187,-0.720347 1.132961,-1.351798 1.853308,-1.894338c0.720347,-0.54254 1.522767,-0.996183 2.407245,-1.360915c0.884478,-0.364732 1.837353,-0.638289 2.858609,-0.820655c1.021256,-0.182366 2.092659,-0.273556 3.214224,-0.273556c0.902713,0 1.737045,0.045588 2.502994,0.136778c0.765935,0.09119 1.495414,0.218837 2.188409,0.382968c0.692994,0.164131 1.360915,0.357894 2.003763,0.58129c0.642848,0.223395 1.292533,0.471878 1.949043,0.745421l0,2.05163c-0.519746,-0.328262 -1.075962,-0.638289 -1.668663,-0.930066c-0.592687,-0.291792 -1.233255,-0.547099 -1.92169,-0.765935c-0.688436,-0.218837 -1.424739,-0.392085 -2.208923,-0.519746c-0.784185,-0.127661 -1.62306,-0.191484 -2.516671,-0.191484c-1.805427,0 -3.369237,0.196043 -4.691388,0.588128c-1.322166,0.392085 -2.414083,0.946022 -3.275767,1.661825c-0.861684,0.715788 -1.499973,1.582031 -1.914852,2.598729c-0.414879,1.016698 -0.622333,2.154218 -0.622333,3.412546c0,1.258328 0.20744,2.393569 0.622333,3.405707c0.414879,1.012139 1.053168,1.876102 1.914852,2.591891c0.861684,0.715788 1.953602,1.267446 3.275767,1.654986c1.322166,0.387526 2.885962,0.58129 4.691388,0.58129c0.893596,0 1.739324,-0.063823 2.537185,-0.191484c0.797861,-0.127661 1.545561,-0.300909 2.243114,-0.519746c0.697553,-0.218837 1.340401,-0.471878 1.928528,-0.759097c0.588128,-0.287233 1.123844,-0.590407 1.607105,-0.909552l0,2.037954l0.000014,0zm26.48943,1.490855l-2.585052,-4.951268l-12.761131,0l-2.585052,4.951268l-1.873823,0l9.834141,-18.792921l2.010601,0l9.834141,18.792921l-1.873823,0m-8.95878,-17.137949l-5.553073,10.613766l11.092483,0l-5.53941,-10.613766zm36.774935,17.137949l-16.33097,-16.549807l0,16.549807l-1.709692,0l0,-18.792921l1.887499,0l16.33097,16.604526l0,-16.604526l1.682339,0l0,18.792921l-1.860147,0zm38.193437,-19.134859c0.866243,0 1.673222,0.043309 2.420921,0.12994c0.7477,0.086631 1.463503,0.209719 2.147365,0.369291c0.683877,0.159572 1.349518,0.351056 1.996925,0.574451c0.647406,0.223395 1.299372,0.471878 1.955881,0.745421l0,2.078983c-0.519746,-0.328262 -1.073683,-0.638289 -1.661825,-0.930066c-0.588128,-0.291792 -1.221858,-0.547099 -1.901176,-0.765935c-0.679318,-0.218837 -1.408783,-0.392085 -2.188409,-0.519746c-0.779626,-0.127661 -1.616222,-0.191484 -2.509832,-0.191484c-1.823676,0 -3.414825,0.191484 -4.773461,0.574451c-1.358636,0.382968 -2.489303,0.930066 -3.392031,1.64131c-0.902713,0.71123 -1.579752,1.577473 -2.031116,2.598729c-0.451364,1.021256 -0.677039,2.170173 -0.677039,3.446737c0,1.194505 0.221116,2.29554 0.663362,3.30312c0.442246,1.00758 1.112432,1.876102 2.010601,2.605567c0.898155,0.729465 2.021998,1.299372 3.371517,1.709692c1.349518,0.41032 2.93155,0.615495 4.746108,0.615495c0.71123,0 1.415621,-0.027353 2.113174,-0.082058c0.697553,-0.054706 1.356357,-0.125381 1.976396,-0.211998c0.620054,-0.086617 1.185387,-0.182366 1.696016,-0.287233c0.510628,-0.104867 0.943742,-0.211998 1.299372,-0.321424l0,-5.703527l-7.645732,0l0,-1.600266l9.355424,0l0,8.261227c-0.674759,0.237072 -1.356357,0.446805 -2.044792,0.629171c-0.688436,0.182366 -1.399665,0.3351 -2.133689,0.458202c-0.734024,0.123102 -1.495414,0.216557 -2.284143,0.280395c-0.788743,0.063823 -1.616222,0.095749 -2.482465,0.095749c-1.768956,0 -3.410266,-0.198322 -4.923916,-0.594966c-1.513649,-0.396644 -2.824404,-0.998462 -3.932291,-1.805441c-1.107873,-0.806979 -1.97641,-1.821397 -2.605567,-3.043255c-0.629171,-1.221858 -0.943742,-2.657993 -0.943742,-4.308421c0,-1.103315 0.145896,-2.108615 0.437687,-3.015902c0.291792,-0.907272 0.704391,-1.723368 1.237814,-2.448274c0.533422,-0.724906 1.17627,-1.356357 1.928528,-1.894338c0.752259,-0.537981 1.58659,-0.982507 2.502994,-1.333563c0.91639,-0.351056 1.903455,-0.615495 2.961182,-0.793302c1.057727,-0.177807 2.161056,-0.266718 3.309958,-0.266718l0,-0.000014zm18.638538,19.134859l0,-18.792921l15.66077,0l0,1.600266l-13.800623,0l0,6.469477l13.10307,0l0,1.58659l-13.10307,0l0,7.536321l14.005783,0l0,1.600266l-15.86593,0zm32.972569,-17.233683l0,17.233683l-1.696016,0l0,-17.233683l-8.54846,0l0,-1.559237l18.792921,0l0,1.559237l-8.548445,0z"/>
   </g>
  </g>
 </g>
</svg>