<svg width="642" height="180" xmlns="http://www.w3.org/2000/svg">

 <g>
  <title>background</title>
  <rect fill="none" id="canvas_background" height="182" width="644" y="-1" x="-1"/>
 </g>
 <g>
  <title>Layer 1</title>
  <g id="svg_1" text-anchor="none" font-size="none" font-weight="none" font-family="none" stroke-dashoffset="0" stroke-miterlimit="10" fill-rule="nonzero" fill="#1b365d">
   <g stroke="null" id="svg_2">
    <path stroke="null" id="svg_3" d="m20.419202,169.557623c-6.056348,0 -10.965977,-4.909646 -10.965977,-10.965977l0,-136.159562c0,-6.056348 4.909646,-10.965977 10.965977,-10.965977l599.064308,0c6.056348,0 10.965977,4.909646 10.965977,10.965977l0,136.159562c0,6.056348 -4.909646,10.965977 -10.965977,10.965977l-599.064308,0zm594.677933,-4.386407c6.056348,0 10.965977,-4.909646 10.965977,-10.965977l0,-127.386781c0,-6.056348 -4.909646,-10.965977 -10.965977,-10.965977l-182.064555,0l0,78.650993c0,10.527341 4.035479,15.089196 12.018713,15.089196c7.89551,0 12.018713,-4.561855 12.018713,-15.089196l0,-33.599772l14.56282,0l0,34.038408c0,18.510575 -10.702805,28.599281 -26.756997,28.599281c-16.141932,0 -26.756997,-10.088706 -26.756997,-28.599281l0,-79.089628l-393.313239,0c-6.056348,0 -10.965977,4.909646 -10.965977,10.965977l0,127.386781c0,6.056348 4.909646,10.965977 10.965977,10.965977l330.938738,0l0,-104.26753l14.738284,0l0,23.160154l23.59879,0l0,-23.160154l14.738284,0l0,61.409505l-14.738284,0l0,-24.125166l-23.59879,0l0,66.983175l244.61452,0.000016zm-545.871989,-104.267514c18.335128,0 32.371588,12.457349 32.371588,30.96794c0,18.598299 -14.124184,30.441564 -32.283848,30.441564l-26.230638,0l0,-61.409505l26.142897,0zm-0.789564,47.723956c9.123694,0 18.335128,-4.649579 18.335128,-16.756016c0,-12.018713 -9.211418,-17.282392 -18.335128,-17.282392l-10.615065,0l0,34.038408l10.615065,0zm40.530286,-47.723956l44.741213,0l0,13.685549l-30.002929,0l0,10.527341l22.107418,0l0,12.281901l-22.107418,0l0,11.229165l30.441564,0l0,13.685549l-45.179849,0l0,-61.409505zm69.217275,51.233075l-3.684567,10.176429l-15.527832,0l23.68653,-61.409505l16.756016,0l23.774254,61.409505l-15.79102,0l-3.684567,-10.176429l-25.528814,0zm16.31738,-25.616538c-1.930007,-5.088215 -3.333655,-8.948246 -3.421379,-9.03597l-0.263188,0c-0.087724,0.087724 -1.491372,3.860031 -3.421379,8.948246l-4.386391,12.281901l15.878744,0l-4.386407,-12.194177zm34.740231,-25.616538l14.738284,0l0,47.723956l27.546545,0l0,13.685549l-42.28483,0l0,-61.409505zm61.058593,42.28483c1.228184,4.649579 5.526851,7.369134 12.194177,7.369134c5.614591,0 9.03597,-1.930007 9.03597,-5.877762c0,-5.877762 -7.369134,-5.526851 -14.913732,-7.369134c-8.334146,-2.017748 -18.686039,-5.877762 -18.686039,-18.861487c0,-12.545089 9.474606,-18.773763 23.247878,-18.773763c12.545089,0 21.493319,5.088215 24.914714,16.054192l-14.036461,3.772291c-1.491372,-4.474115 -5.000491,-6.930498 -11.141441,-6.930498c-5.614591,0 -7.983234,2.193195 -7.983234,5.439127c0,5.175939 5.877762,5.965486 14.475096,7.720046c9.03597,1.75456 19.036951,5.614591 19.036951,18.861487c0,12.632813 -8.860522,18.949211 -23.861978,18.949211c-10.702805,0 -22.809242,-3.245931 -26.318362,-16.580568l14.036461,-3.772275zm205.458645,-17.54558l-0.263188,0c0,0.087724 0.175448,7.632322 0.175448,15.615556l0,21.054683l-14.738284,0l0,-61.409505l14.913732,0l26.142897,35.968415l0.263188,0c0,-0.087724 -0.087724,-7.983234 -0.087724,-14.650561l0,-21.317871l14.738284,0l0,61.409505l-15.001456,0l-26.142897,-36.670222zm82.28874,-11.053701l0,47.723956l-14.738284,0l0,-47.723956l-18.773763,0l0,-13.685549l52.285811,0l0,13.685549l-18.773763,0z"/>
    <path stroke="null" id="svg_4" d="m56.401769,217.47734c1.935319,-0.45537 4.174206,-2.238888 4.174206,-5.730047c0,-3.718836 -3.073735,-6.526949 -7.931005,-6.526949l-9.562738,0l0,26.563165l10.283731,0c5.843902,0 9.069422,-2.921951 9.069422,-7.399743c0,-4.515738 -3.529106,-6.375164 -6.033633,-6.792588l0.000016,-0.113838zm-10.245801,-0.872794l0,-8.72789l5.881848,0c3.415267,0 5.426478,1.707625 5.426478,4.326007c0,2.884005 -2.162995,4.401899 -5.122892,4.401899l-6.185433,-0.000016zm0,12.522635l0,-10.094l6.982319,0c3.263466,0 6.071579,1.859426 6.071579,5.198785c0,3.263466 -2.428635,4.895216 -5.995686,4.895216l-7.058211,0zm23.674225,2.656312l17.949113,0l0,-2.884005l-14.875378,0l0,-9.562738l11.536003,0l0,-2.884005l-11.536003,0l0,-8.348429l14.799469,0l0,-2.884005l-17.873221,0l0.000016,26.563181zm24.281396,-6.982319c0.834848,5.995686 5.95774,7.475635 10.435532,7.475635c5.919794,0 9.410953,-2.542473 9.410953,-7.551527c0,-5.843902 -4.857269,-7.096157 -8.803799,-7.855113c-3.794745,-0.758956 -7.134103,-1.517895 -7.134103,-5.047c0,-2.694258 1.935319,-4.363953 5.805956,-4.363953c3.908583,0 6.071579,1.707625 6.792588,4.629576l2.959897,-0.796902c-1.138417,-4.553684 -4.781377,-6.602841 -9.714523,-6.602841c-5.578262,0 -8.99353,2.618365 -8.99353,7.247942c0,5.388532 4.629576,6.678733 8.234574,7.513581c3.301429,0.720993 7.703312,0.948686 7.703312,5.31264c0,3.187574 -2.352742,4.743415 -6.223363,4.743415c-4.060368,0 -7.209996,-1.707625 -7.513581,-5.50237l-2.959913,0.796918zm46.29086,-16.696841l0,-2.884005l-21.364364,0l0,2.884005l9.107368,0l0,23.67916l3.111682,0l0,-23.67916l9.145314,0zm20.026329,-2.884005l0,26.563165l9.4489,0c7.931005,0 13.850799,-4.971108 13.850799,-13.167736c0,-8.196628 -5.881848,-13.395429 -14.116422,-13.395429l-9.183277,0zm3.073735,23.67916l0,-20.795155l5.995686,0c6.185417,0 11.118579,3.642944 11.118579,10.511424c0,6.906426 -4.971108,10.283731 -10.890902,10.283731l-6.223363,0zm27.696646,2.884005l17.949113,0l0,-2.884005l-14.875378,0l0,-9.562738l11.536003,0l0,-2.884005l-11.536003,0l0,-8.348429l14.799469,0l0,-2.884005l-17.873221,0l0.000016,26.563181zm43.558656,-7.058211l2.959897,7.058211l3.301429,0l-11.30831,-26.563165l-3.377321,0l-11.30831,26.563165l3.301429,0l2.959897,-7.058211l13.471289,0zm-1.176363,-2.808112l-11.118579,0l2.921951,-6.982319c0.986632,-2.390689 2.542473,-6.147471 2.580419,-6.185417l0.075892,0c0.037946,0.037946 1.593787,3.794745 2.618365,6.223363l2.921951,6.944373zm14.37711,9.866324l17.076319,0l0,-2.884005l-14.002584,0l0,-23.67916l-3.073735,0l0,26.563165zm22.15633,-6.982319c0.834848,5.995686 5.95774,7.475635 10.435532,7.475635c5.919794,0 9.410953,-2.542473 9.410953,-7.551527c0,-5.843902 -4.857269,-7.096157 -8.803799,-7.855113c-3.794745,-0.758956 -7.134103,-1.517895 -7.134103,-5.047c0,-2.694258 1.935319,-4.363953 5.805956,-4.363953c3.908583,0 6.071579,1.707625 6.792588,4.629576l2.959897,-0.796902c-1.138417,-4.553684 -4.781377,-6.602841 -9.714523,-6.602841c-5.578262,0 -8.99353,2.618365 -8.99353,7.247942c0,5.388532 4.629576,6.678733 8.234574,7.513581c3.301429,0.720993 7.703312,0.948686 7.703312,5.31264c0,3.187574 -2.352742,4.743415 -6.223363,4.743415c-4.060368,0 -7.209996,-1.707625 -7.513581,-5.50237l-2.959913,0.796918zm50.877555,-4.553684l10.283731,-15.027162l-3.377321,0l-6.033633,8.803799c-1.36611,1.935319 -2.238888,3.339375 -2.27685,3.377321l-0.075892,0c-0.037946,-0.037946 -0.986632,-1.479949 -2.352742,-3.453213l-5.95774,-8.72789l-3.567052,0l10.245785,15.027162l0,11.536003l3.111682,0l0.000033,-11.536019zm13.580224,-1.783534c0,8.27252 5.995686,13.812837 13.77489,13.812837c7.741258,0 13.77489,-5.540316 13.77489,-13.812837c0,-8.234574 -6.033633,-13.77489 -13.77489,-13.77489c-7.779204,0 -13.77489,5.540316 -13.77489,13.77489zm3.111682,0c0,-6.716679 4.667522,-10.852956 10.663209,-10.852956c5.95774,0 10.663209,4.098314 10.663209,10.852956c0,6.754626 -4.705469,10.852956 -10.663209,10.852956c-5.995686,0 -10.663209,-4.098314 -10.663209,-10.852956zm52.931647,-13.243628l-3.073735,0l0,15.482532c0,5.767993 -2.390689,8.614052 -7.551527,8.614052c-5.122892,0 -7.475635,-2.846059 -7.475635,-8.614052l0,-15.482532l-3.149628,0l0,15.482532c0,7.513581 3.718836,11.573949 10.625263,11.573949c6.86848,0 10.625263,-4.060368 10.625263,-11.573949l0,-15.482532zm42.794766,18.290645c-1.669679,3.567052 -5.236731,5.805956 -9.562738,5.805956c-5.843902,0 -10.397586,-4.13626 -10.397586,-10.852956c0,-6.678733 4.326007,-10.852956 10.473478,-10.852956c5.540316,0 8.158682,3.339375 9.145314,5.160839l2.997843,-0.834848c-1.669679,-3.908583 -5.919794,-7.247942 -12.067265,-7.247942c-7.779204,0 -13.661052,5.388532 -13.661052,13.736944c0,8.386375 5.919794,13.850799 13.661052,13.850799c5.616209,0 10.35964,-2.959897 12.408797,-7.968951l-2.997843,-0.796885zm28.11407,1.214309l2.959897,7.058211l3.301429,0l-11.30831,-26.563165l-3.377321,0l-11.30831,26.563165l3.301429,0l2.959897,-7.058211l13.471289,0zm-1.176363,-2.808112l-11.118579,0l2.921951,-6.982319c0.986632,-2.390689 2.542473,-6.147471 2.580419,-6.185417l0.075892,0c0.037946,0.037946 1.593787,3.794745 2.618365,6.223363l2.921951,6.944373zm33.00927,9.866324l3.149628,0l0,-26.563165l-3.111682,0l0,15.178947c0,3.073735 0.075892,6.185417 0.075892,6.223363l-0.075892,0l-15.558424,-21.402326l-3.111682,0l0,26.563165l3.073735,0l0,-15.216893c0,-3.301429 -0.075892,-6.337218 -0.075892,-6.375164l0.075892,0l15.558424,21.592073zm49.435553,0l0,-13.888745l-10.777047,0l0,2.884005l7.893059,0l0,3.794745c-1.062525,1.973265 -4.553684,4.743415 -9.562738,4.743415c-6.071579,0 -10.701155,-4.13626 -10.701155,-10.890902c0,-6.640787 4.401899,-10.81501 10.54937,-10.81501c5.730047,0 8.234574,3.529106 9.107368,5.160839l3.035789,-0.834848c-1.669679,-3.946529 -5.995686,-7.247942 -12.067265,-7.247942c-7.817167,0 -13.736944,5.388532 -13.736944,13.77489c0,8.348429 6.071579,13.812837 13.623106,13.812837c5.236731,0 8.53816,-2.846059 9.828377,-4.326007l0.075892,0c0,0.341532 -0.037946,0.796902 -0.037946,3.832691l2.770134,0.000033zm8.305547,0l17.949113,0l0,-2.884005l-14.875378,0l0,-9.562738l11.536003,0l0,-2.884005l-11.536003,0l0,-8.348429l14.799469,0l0,-2.884005l-17.873221,0l0.000016,26.563181zm45.721652,-23.67916l0,-2.884005l-21.364364,0l0,2.884005l9.107368,0l0,23.67916l3.111682,0l0,-23.67916l9.145314,0z"/>
   </g>
  </g>
 </g>
</svg>